<svg xmlns="http://www.w3.org/2000/svg" viewBox="0 0 32 32"><path d="M16,.27A16.14,16.14,0,0,0,11,31.7c.79.16,1.09-.34,1.09-.77s0-1.66,0-3C7.56,28.9,6.63,26,6.63,26a4.13,4.13,0,0,0-1.78-2.35c-1.46-1,.11-1,.11-1a3.34,3.34,0,0,1,2.46,1.65,3.4,3.4,0,0,0,4.67,1.34,3.45,3.45,0,0,1,1-2.17c-3.56-.37-7.29-1.76-7.29-8a6.29,6.29,0,0,1,1.64-4.32,5.85,5.85,0,0,1,.16-4.28S9,6.52,12,8.6a15.4,15.4,0,0,1,8,0c3.05-2.08,4.4-1.66,4.4-1.66a5.91,5.91,0,0,1,.16,4.28,6.2,6.2,0,0,1,1.64,4.32c0,6.2-3.74,7.56-7.32,8a3.81,3.81,0,0,1,1.09,3c0,2.17,0,3.9,0,4.44s.3.93,1.09.77A16.14,16.14,0,0,0,16,.27Z"/></svg>