<svg xmlns="http://www.w3.org/2000/svg" viewBox="0 0 32 32"><rect width="32" height="32" fill="#ccc"/><path d="M27,16.15a2.41,2.41,0,0,0-2.42-2.4,2.35,2.35,0,0,0-1.66.68,11.82,11.82,0,0,0-6.45-2l1.1-5.17L21.16,8a1.71,1.71,0,1,0,.17-.84l-4-.85a.44.44,0,0,0-.32.06.4.4,0,0,0-.19.27l-1.24,5.77a11.71,11.71,0,0,0-6.53,2,2.41,2.41,0,1,0-2.66,3.95,4.52,4.52,0,0,0-.06.74c0,3.7,4.32,6.72,9.65,6.72s9.65-3,9.65-6.72a4.4,4.4,0,0,0-.06-.73A2.4,2.4,0,0,0,27,16.15ZM10.46,17.88a1.73,1.73,0,1,1,1.73,1.73A1.74,1.74,0,0,1,10.46,17.88Zm9.63,4.55c-1.18,1.17-3.43,1.26-4.09,1.26s-2.92-.09-4.09-1.26A.44.44,0,0,1,12,21.8a.45.45,0,0,1,.58,0,5.4,5.4,0,0,0,3.45,1,5.41,5.41,0,0,0,3.46-1,.45.45,0,0,1,.64.63Zm-.32-2.82a1.73,1.73,0,1,1,1.73-1.73,1.72,1.72,0,0,1-1.73,1.73Z" fill="#fff"/></svg>