<svg xmlns="http://www.w3.org/2000/svg" viewBox="0 0 64 64"><rect width="64" height="64" fill="#ccc"/><path d="M54.006,32.307a4.824,4.824,0,0,0-8.172-3.456,23.623,23.623,0,0,0-12.9-4.093l2.2-10.339,7.183,1.526a3.457,3.457,0,1,0,.351-1.684l-8.008-1.7a.852.852,0,0,0-.647.118.866.866,0,0,0-.375.543L31.166,24.758a23.466,23.466,0,0,0-13.074,4.093,4.819,4.819,0,1,0-5.312,7.9,9.428,9.428,0,0,0-.114,1.482c0,7.405,8.64,13.439,19.295,13.439s19.3-6.019,19.3-13.439a9.538,9.538,0,0,0-.114-1.452A4.825,4.825,0,0,0,54.006,32.307Zm-33.08,3.456a3.456,3.456,0,1,1,3.456,3.456A3.456,3.456,0,0,1,20.926,35.763Zm19.255,9.1C37.826,47.208,33.323,47.39,32,47.39s-5.831-.182-8.181-2.528A.894.894,0,0,1,25.078,43.6c1.481,1.482,4.651,2.01,6.912,2.01s5.431-.528,6.913-2.01a.9.9,0,0,1,1.278,1.264Zm-.632-5.643a3.456,3.456,0,1,1,3.456-3.456A3.456,3.456,0,0,1,39.549,39.219Z" fill="#fff"/></svg>