<?xml version="1.0" encoding="utf-8"?>
<!-- Generator: Adobe Illustrator 24.1.2, SVG Export Plug-In . SVG Version: 6.00 Build 0)  -->
<svg version="1.2" baseProfile="tiny" id="Layer_1" xmlns="http://www.w3.org/2000/svg" xmlns:xlink="http://www.w3.org/1999/xlink"
	 x="0px" y="0px" viewBox="0 0 16 16" overflow="visible" xml:space="preserve">
<path fill="none" stroke="#000000" stroke-width="1.7" stroke-linejoin="round" stroke-miterlimit="10" d="M1,8c0-3.9,3.1-7,7-7
	c3.9,0,7,3.1,7,7c0,1-0.2,2-0.6,2.9c0,0.1,0.3,2,0.3,2.1c0,0.1,0.2,1.7,0.2,1.8c-0.1,0.1-1.6-0.2-1.7-0.2c0,0-0.1,0-0.1,0
	c-0.1,0-2-0.3-2-0.3C10,14.8,9,15,8,15C4.1,15,1,11.9,1,8z"/>
</svg>
