<svg xmlns="http://www.w3.org/2000/svg" viewBox="0 0 64 64"><path d="M60.5,0H41.143a3.429,3.429,0,1,0,0,6.857H52.168L20.1,38.992a3.422,3.422,0,1,0,4.84,4.84L57.076,11.765V22.79a3.428,3.428,0,1,0,6.856,0V3.429A3.443,3.443,0,0,0,60.5,0ZM51.63,31.8A3.443,3.443,0,0,0,48.2,35.227V49.008a8.019,8.019,0,0,1-8,8H14.991a8.019,8.019,0,0,1-8-8V23.8a8.019,8.019,0,0,1,8-8H28.773a3.429,3.429,0,0,0,0-6.857H14.991A14.934,14.934,0,0,0,.067,23.866v25.21A14.934,14.934,0,0,0,14.991,64H40.2A14.934,14.934,0,0,0,55.126,49.076V35.227a3.548,3.548,0,0,0-3.5-3.429Z"/></svg>